<?xml version="1.0" encoding="UTF-8" standalone="no"?>
<svg
   xmlns:dc="http://purl.org/dc/elements/1.1/"
   xmlns:cc="http://creativecommons.org/ns#"
   xmlns:rdf="http://www.w3.org/1999/02/22-rdf-syntax-ns#"
   xmlns:svg="http://www.w3.org/2000/svg"
   xmlns="http://www.w3.org/2000/svg"
   viewBox="0 0 301.14798 37.795334"
   height="37.795334"
   width="301.14798"
   xml:space="preserve"
   id="svg2"
   version="1.1"><metadata
     id="metadata8"><rdf:RDF><cc:Work
         rdf:about=""><dc:format>image/svg+xml</dc:format><dc:type
           rdf:resource="http://purl.org/dc/dcmitype/StillImage" /></cc:Work></rdf:RDF></metadata><defs
     id="defs6" /><g
     transform="matrix(1.3333333,0,0,-1.3333333,0,37.795332)"
     id="g10"><g
       transform="scale(0.1)"
       id="g12"><path
         id="path14"
         style="fill:#231f20;fill-opacity:1;fill-rule:nonzero;stroke:none"
         d="m 615.914,157.301 v 55.258 h 32.758 v -6.582 h -25.106 v -17.375 h 23.641 v -6.582 h -23.641 v -24.719 h -7.652" /><path
         id="path16"
         style="fill:#231f20;fill-opacity:1;fill-rule:nonzero;stroke:none"
         d="m 677.91,181.023 c 0,6.661 -0.39,10.563 -8.125,10.563 -3.672,0 -7.109,-2.145 -7.187,-6.117 h -7.657 c 0.391,8.414 6.973,11.402 14.551,11.402 7.871,0 15.684,-2.379 15.684,-13.094 v -18.363 c 0,-1.684 0.078,-4.898 0.312,-8.113 h -4.902 c -0.684,0 -1.992,-0.383 -2.07,0.535 -0.157,1.762 -0.313,3.441 -0.391,5.203 h -0.137 c -2.383,-4.82 -6.66,-6.887 -11.953,-6.887 -6.66,0 -13.379,3.446 -13.379,10.942 0,10.793 9.551,13.929 18.672,13.929 z m -7.285,-5.05 c -4.434,-0.231 -10.332,-1.836 -10.332,-7.418 0,-4.746 3.301,-7.121 7.578,-7.121 8.574,0 10.195,7.421 10.039,14.539 h -7.285" /><path
         id="path18"
         style="fill:#231f20;fill-opacity:1;fill-rule:nonzero;stroke:none"
         d="m 720.078,183.398 c -0.39,4.825 -2.676,8.188 -7.89,8.188 -6.954,0 -9.649,-6.047 -9.649,-15.074 0,-9.032 2.695,-15.078 9.649,-15.078 4.824,0 7.812,3.136 8.183,8.648 h 7.285 c -0.625,-8.648 -7.051,-13.93 -15.547,-13.93 -12.324,0 -17.207,8.723 -17.207,20.055 0,11.246 5.664,20.664 17.832,20.664 8.106,0 14.219,-5.133 14.61,-13.473 h -7.266" /><path
         id="path20"
         style="fill:#231f20;fill-opacity:1;fill-rule:nonzero;stroke:none"
         d="m 737.832,157.301 v 55.258 h 7.266 v -21.965 h 0.156 c 2.754,4.285 6.894,6.277 12.48,6.277 10.02,0 13.164,-6.66 13.164,-13.551 v -26.019 h -7.265 v 22.726 c 0,6.739 -1.778,11.102 -8.574,11.25 -2.911,0.078 -7.364,-2.136 -8.731,-5.355 -1.68,-3.981 -1.23,-6.734 -1.23,-8.875 v -19.746 h -7.266" /><path
         id="path22"
         style="fill:#231f20;fill-opacity:1;fill-rule:nonzero;stroke:none"
         d="m 784.219,157.301 v 55.258 h 7.265 v -21.965 h 0.157 c 2.754,4.285 6.875,6.277 12.461,6.277 10.039,0 13.164,-6.66 13.164,-13.551 V 157.301 H 810 v 22.726 c 0,6.739 -1.758,11.102 -8.574,11.25 -2.91,0.078 -7.344,-2.136 -8.731,-5.355 -1.679,-3.981 -1.211,-6.734 -1.211,-8.875 v -19.746 h -7.265" /><path
         id="path24"
         style="fill:#231f20;fill-opacity:1;fill-rule:nonzero;stroke:none"
         d="m 864.336,176.512 c 0,-11.942 -6.504,-20.36 -19.121,-20.36 -12.637,0 -19.141,8.418 -19.141,20.36 0,11.933 6.504,20.359 19.141,20.359 12.617,0 19.121,-8.426 19.121,-20.359 z m -19.121,-15.078 c 8.633,0 11.465,6.886 11.465,15.078 0,8.183 -2.832,15.074 -11.465,15.074 -8.652,0 -11.485,-6.891 -11.485,-15.074 0,-8.192 2.833,-15.078 11.485,-15.078" /><path
         id="path26"
         style="fill:#231f20;fill-opacity:1;fill-rule:nonzero;stroke:none"
         d="m 896.719,183.398 c -0.391,4.825 -2.676,8.188 -7.891,8.188 -6.953,0 -9.629,-6.047 -9.629,-15.074 0,-9.032 2.676,-15.078 9.629,-15.078 4.824,0 7.813,3.136 8.203,8.648 h 7.266 c -0.625,-8.648 -7.051,-13.93 -15.547,-13.93 -12.305,0 -17.207,8.723 -17.207,20.055 0,11.246 5.664,20.664 17.832,20.664 8.105,0 14.238,-5.133 14.609,-13.473 h -7.265" /><path
         id="path28"
         style="fill:#231f20;fill-opacity:1;fill-rule:nonzero;stroke:none"
         d="m 914.473,157.301 v 55.258 h 7.265 v -21.965 h 0.157 c 2.753,4.285 6.894,6.277 12.48,6.277 10.02,0 13.164,-6.66 13.164,-13.551 v -26.019 h -7.266 v 22.726 c 0,6.739 -1.757,11.102 -8.574,11.25 -2.91,0.078 -7.344,-2.136 -8.73,-5.355 -1.68,-3.981 -1.231,-6.734 -1.231,-8.875 v -19.746 h -7.265" /><path
         id="path30"
         style="fill:#231f20;fill-opacity:1;fill-rule:nonzero;stroke:none"
         d="m 972.344,196.871 c 7.265,0 15.449,-3.062 14.922,-11.789 h -7.657 c 0.313,4.898 -3.437,6.504 -7.656,6.504 -3.906,0 -7.051,-1.836 -7.051,-6.117 0,-4.289 6.602,-4.594 9.356,-5.442 6.504,-2.14 14.004,-2.902 14.004,-11.55 0,-9.418 -9.199,-12.325 -17.071,-12.325 -8.046,0 -14.785,3.672 -14.707,12.551 h 7.657 c 0.156,-4.746 3.379,-7.269 7.812,-7.269 4.277,0 8.652,1.679 8.652,6.656 0,8.57 -23.359,2.144 -23.359,17.144 0,8.036 8.125,11.637 15.098,11.637" /><path
         id="path32"
         style="fill:#231f20;fill-opacity:1;fill-rule:nonzero;stroke:none"
         d="m 1020.39,183.398 c -0.37,4.825 -2.68,8.188 -7.87,8.188 -6.97,0 -9.65,-6.047 -9.65,-15.074 0,-9.032 2.68,-15.078 9.65,-15.078 4.82,0 7.81,3.136 8.18,8.648 h 7.27 c -0.61,-8.648 -7.03,-13.93 -15.53,-13.93 -12.32,0 -17.225,8.723 -17.225,20.055 0,11.246 5.665,20.664 17.835,20.664 8.12,0 14.24,-5.133 14.63,-13.473 h -7.29" /><path
         id="path34"
         style="fill:#231f20;fill-opacity:1;fill-rule:nonzero;stroke:none"
         d="m 1038.16,157.301 v 55.258 h 7.27 v -21.965 h 0.16 c 2.75,4.285 6.89,6.277 12.48,6.277 10.02,0 13.16,-6.66 13.16,-13.551 v -26.019 h -7.28 v 22.726 c 0,6.739 -1.76,11.102 -8.58,11.25 -2.89,0.078 -7.34,-2.136 -8.71,-5.355 -1.7,-3.981 -1.23,-6.734 -1.23,-8.875 v -19.746 h -7.27" /><path
         id="path36"
         style="fill:#231f20;fill-opacity:1;fill-rule:nonzero;stroke:none"
         d="m 1108.81,195.719 h 7.26 v -38.418 h -7.12 v 5.664 h -0.14 c -2.91,-4.824 -7.81,-6.813 -13.17,-6.813 -8.04,0 -12.63,6.121 -12.63,13.852 v 25.715 h 7.26 v -22.731 c 0,-6.656 1.55,-11.554 8.5,-11.554 2.99,0 7.05,1.531 8.57,5.507 1.39,3.598 1.47,8.114 1.47,9.032 v 19.746" /><path
         id="path38"
         style="fill:#231f20;fill-opacity:1;fill-rule:nonzero;stroke:none"
         d="m 1128.01,157.301 v 55.258 h 7.26 v -55.258 h -7.26" /><path
         id="path40"
         style="fill:#231f20;fill-opacity:1;fill-rule:nonzero;stroke:none"
         d="m 1153.42,175.133 c -0.53,-6.735 2.22,-13.699 9.65,-13.699 5.66,0 8.49,2.218 9.33,7.804 h 7.66 c -1.15,-8.722 -7.89,-13.086 -17.07,-13.086 -12.33,0 -17.23,8.723 -17.23,20.055 0,11.246 5.67,20.664 17.83,20.664 11.49,-0.23 16.92,-7.508 16.92,-18.141 v -3.597 z m 19.43,5.051 c 0.16,6.425 -2.75,11.402 -9.78,11.402 -6.06,0 -9.65,-5.129 -9.65,-11.402 h 19.43" /><path
         id="path42"
         style="fill:#231f20;fill-opacity:1;fill-rule:nonzero;stroke:none"
         d="m 1253.83,212.559 v -55.258 h -9.49 l -27.93,46.918 h -0.16 v -46.918 h -6.8 v 55.258 h 10.47 l 26.96,-45.696 h 0.15 v 45.696 h 6.8" /><path
         id="path44"
         style="fill:#231f20;fill-opacity:1;fill-rule:nonzero;stroke:none"
         d="m 1302.81,176.512 c 0,-11.942 -6.5,-20.36 -19.12,-20.36 -12.64,0 -19.14,8.418 -19.14,20.36 0,11.933 6.5,20.359 19.14,20.359 12.62,0 19.12,-8.426 19.12,-20.359 z m -19.12,-15.078 c 8.63,0 11.47,6.886 11.47,15.078 0,8.183 -2.84,15.074 -11.47,15.074 -8.65,0 -11.48,-6.891 -11.48,-15.074 0,-8.192 2.83,-15.078 11.48,-15.078" /><path
         id="path46"
         style="fill:#231f20;fill-opacity:1;fill-rule:nonzero;stroke:none"
         d="m 1319.51,157.301 h -7.28 v 38.418 h 7.28 v -7.418 h 0.14 c 1.07,5.273 5.98,7.957 11.25,7.957 0.92,0 1.7,-0.078 2.54,-0.078 v -6.887 c -1,0.379 -2.15,0.379 -3.15,0.379 -9.18,-0.309 -10.78,-5.199 -10.78,-13.317 v -19.054" /><path
         id="path48"
         style="fill:#231f20;fill-opacity:1;fill-rule:nonzero;stroke:none"
         d="m 1365.64,212.559 h 7.27 v -48.45 c 0,-2.293 0.23,-4.589 0.39,-6.808 h -7.42 l -0.24,5.738 v 0.383 h -0.15 c -2.6,-5.356 -7.66,-7.27 -13.24,-7.27 -11.39,0 -15.9,10.489 -15.9,20.36 0,10.406 5.27,20.359 17.2,20.359 4.91,0 9.73,-1.766 11.94,-6.355 h 0.15 z m -10.78,-51.356 c 8.79,0 10.86,8.192 10.86,15.379 0,6.973 -2.59,15.234 -10.86,15.234 -8.73,0 -10.88,-8.039 -10.88,-15.234 0,-7.187 2.68,-15.379 10.88,-15.379" /><path
         id="path50"
         style="fill:#231f20;fill-opacity:1;fill-rule:nonzero;stroke:none"
         d="m 1441.88,195.719 -13.56,-38.418 h -8.26 l -8.95,31.609 h -0.15 l -9.94,-31.609 h -8.5 l -12.72,38.418 h 7.9 l 9.25,-30.918 h 0.16 l 9.57,30.918 h 9.41 l 8.64,-30.305 h 0.15 l 9.57,30.305 h 7.43" /><path
         id="path52"
         style="fill:#231f20;fill-opacity:1;fill-rule:nonzero;stroke:none"
         d="m 1453.89,175.133 c -0.53,-6.735 2.22,-13.699 9.65,-13.699 5.66,0 8.49,2.218 9.33,7.804 h 7.66 c -1.15,-8.722 -7.89,-13.086 -17.07,-13.086 -12.33,0 -17.23,8.723 -17.23,20.055 0,11.246 5.66,20.664 17.83,20.664 11.49,-0.23 16.92,-7.508 16.92,-18.141 v -3.597 z m 19.45,5.051 c 0.14,6.425 -2.75,11.402 -9.8,11.402 -6.06,0 -9.65,-5.129 -9.65,-11.402 h 19.45" /><path
         id="path54"
         style="fill:#231f20;fill-opacity:1;fill-rule:nonzero;stroke:none"
         d="m 1504.02,196.871 c 7.27,0 15.47,-3.062 14.93,-11.789 h -7.66 c 0.31,4.898 -3.44,6.504 -7.66,6.504 -3.88,0 -7.03,-1.836 -7.03,-6.117 0,-4.289 6.58,-4.594 9.34,-5.442 6.5,-2.14 14,-2.902 14,-11.55 0,-9.418 -9.18,-12.325 -17.07,-12.325 -8.03,0 -14.76,3.672 -14.69,12.551 h 7.66 c 0.14,-4.746 3.36,-7.269 7.79,-7.269 4.3,0 8.66,1.679 8.66,6.656 0,8.57 -23.34,2.144 -23.34,17.144 0,8.036 8.1,11.637 15.07,11.637" /><path
         id="path56"
         style="fill:#231f20;fill-opacity:1;fill-rule:nonzero;stroke:none"
         d="m 1532.34,195.719 v 8.191 l 7.27,2.293 v -10.484 l 8.89,0.234 v -5.437 l -8.89,0.078 v -24.801 c 0,-2.754 2.15,-4.055 4.75,-4.055 1.15,0 2.67,0.157 3.82,0.457 v -5.586 c -1.68,-0.078 -3.28,-0.457 -4.98,-0.457 -1.75,0 -3.12,0.075 -4.88,0.379 -1.15,0.235 -3.07,0.848 -4.3,2.528 -1.29,1.839 -1.68,1.992 -1.68,7.117 v 24.418 l -6.58,-0.078 v 5.437 l 6.58,-0.234" /><path
         id="path58"
         style="fill:#231f20;fill-opacity:1;fill-rule:nonzero;stroke:none"
         d="m 1570.45,196.871 c 7.28,0 15.47,-3.062 14.94,-11.789 h -7.66 c 0.3,4.898 -3.45,6.504 -7.65,6.504 -3.91,0 -7.05,-1.836 -7.05,-6.117 0,-4.289 6.58,-4.594 9.33,-5.442 6.51,-2.14 14.01,-2.902 14.01,-11.55 0,-9.418 -9.18,-12.325 -17.05,-12.325 -8.05,0 -14.79,3.672 -14.71,12.551 h 7.66 c 0.15,-4.746 3.37,-7.269 7.81,-7.269 4.28,0 8.65,1.679 8.65,6.656 0,8.57 -23.34,2.144 -23.34,17.144 0,8.036 8.11,11.637 15.06,11.637" /><path
         id="path60"
         style="fill:#231f20;fill-opacity:1;fill-rule:nonzero;stroke:none"
         d="m 1618.52,183.398 c -0.38,4.825 -2.68,8.188 -7.88,8.188 -6.97,0 -9.64,-6.047 -9.64,-15.074 0,-9.032 2.67,-15.078 9.64,-15.078 4.83,0 7.8,3.136 8.19,8.648 h 7.26 c -0.6,-8.648 -7.03,-13.93 -15.52,-13.93 -12.33,0 -17.23,8.723 -17.23,20.055 0,11.246 5.66,20.664 17.83,20.664 8.11,0 14.24,-5.133 14.63,-13.473 h -7.28" /><path
         id="path62"
         style="fill:#231f20;fill-opacity:1;fill-rule:nonzero;stroke:none"
         d="m 1635.9,157.301 v 55.258 h 7.26 v -21.965 h 0.16 c 2.75,4.285 6.89,6.277 12.48,6.277 10.02,0 13.16,-6.66 13.16,-13.551 v -26.019 h -7.28 v 22.726 c 0,6.739 -1.76,11.102 -8.55,11.25 -2.92,0.078 -7.37,-2.136 -8.74,-5.355 -1.68,-3.981 -1.23,-6.734 -1.23,-8.875 v -19.746 h -7.26" /><path
         id="path64"
         style="fill:#231f20;fill-opacity:1;fill-rule:nonzero;stroke:none"
         d="m 1736.78,195.719 -13.56,-38.418 h -8.26 L 1706,188.91 h -0.16 l -9.94,-31.609 h -8.5 l -12.69,38.418 h 7.87 l 9.26,-30.918 h 0.15 l 9.57,30.918 h 9.42 l 8.65,-30.305 h 0.16 l 9.55,30.305 h 7.44" /><path
         id="path66"
         style="fill:#231f20;fill-opacity:1;fill-rule:nonzero;stroke:none"
         d="m 1748.79,175.133 c -0.55,-6.735 2.21,-13.699 9.63,-13.699 5.66,0 8.49,2.218 9.33,7.804 h 7.66 c -1.13,-8.722 -7.87,-13.086 -17.07,-13.086 -12.3,0 -17.21,8.723 -17.21,20.055 0,11.246 5.67,20.664 17.83,20.664 11.49,-0.23 16.92,-7.508 16.92,-18.141 v -3.597 z m 19.43,5.051 c 0.16,6.425 -2.75,11.402 -9.8,11.402 -6.04,0 -9.63,-5.129 -9.63,-11.402 h 19.43" /><path
         id="path68"
         style="fill:#231f20;fill-opacity:1;fill-rule:nonzero;stroke:none"
         d="m 1784.61,212.559 h 8.63 v -7.887 h -8.63 z m 0.68,-55.258 v 38.418 h 7.27 v -38.418 h -7.27" /><path
         id="path70"
         style="fill:#231f20;fill-opacity:1;fill-rule:nonzero;stroke:none"
         d="m 1831.29,157.301 h -27.93 v 5.051 l 19.35,28.316 h -19.06 v 5.051 h 26.88 v -5.051 l -19.3,-28.316 h 20.06 v -5.051" /><path
         id="path72"
         style="fill:#231f20;fill-opacity:1;fill-rule:nonzero;stroke:none"
         d="m 615.883,70.8594 v 55.2536 h 7.652 v -23.722 h 26.25 v 23.722 h 7.656 V 70.8594 h -7.656 v 24.9492 h -26.25 V 70.8594 h -7.652" /><path
         id="path74"
         style="fill:#231f20;fill-opacity:1;fill-rule:nonzero;stroke:none"
         d="m 705.664,90.0664 c 0,-11.9414 -6.523,-20.3594 -19.141,-20.3594 -12.636,0 -19.14,8.418 -19.14,20.3594 0,11.9456 6.504,20.3636 19.14,20.3636 12.618,0 19.141,-8.418 19.141,-20.3636 z M 686.523,74.9883 c 8.653,0 11.485,6.8867 11.485,15.0781 0,8.1953 -2.832,15.0786 -11.485,15.0786 -8.652,0 -11.484,-6.8833 -11.484,-15.0786 0,-8.1914 2.832,-15.0781 11.484,-15.0781" /><path
         id="path76"
         style="fill:#231f20;fill-opacity:1;fill-rule:nonzero;stroke:none"
         d="m 738.418,96.9531 c -0.391,4.8239 -2.676,8.1919 -7.891,8.1919 -6.972,0 -9.648,-6.0434 -9.648,-15.0786 0,-9.0312 2.676,-15.0781 9.648,-15.0781 4.825,0 7.813,3.1367 8.184,8.6523 h 7.285 c -0.625,-8.6523 -7.051,-13.9336 -15.547,-13.9336 -12.324,0 -17.226,8.7305 -17.226,20.0586 0,11.2504 5.664,20.6644 17.832,20.6644 8.125,0 14.238,-5.129 14.629,-13.4769 h -7.266" /><path
         id="path78"
         style="fill:#231f20;fill-opacity:1;fill-rule:nonzero;stroke:none"
         d="m 755.41,70.8594 v 55.2536 h 7.266 V 104.16 h 0.156 c 2.754,4.278 6.875,6.27 12.461,6.27 10.039,0 13.164,-6.66 13.164,-13.555 V 70.8594 h -7.266 v 22.7344 c 0,6.7382 -1.757,11.0942 -8.574,11.2502 -2.91,0.078 -7.344,-2.149 -8.73,-5.3635 -1.68,-3.9727 -1.211,-6.7344 -1.211,-8.875 V 70.8594 h -7.266" /><path
         id="path80"
         style="fill:#231f20;fill-opacity:1;fill-rule:nonzero;stroke:none"
         d="m 813.262,110.43 c 7.265,0 15.468,-3.067 14.922,-11.7894 h -7.657 c 0.313,4.8944 -3.437,6.5044 -7.656,6.5044 -3.887,0 -7.031,-1.836 -7.031,-6.1216 0,-4.289 6.582,-4.5898 9.336,-5.4296 6.504,-2.1485 14.004,-2.9102 14.004,-11.5625 0,-9.4141 -9.18,-12.3243 -17.071,-12.3243 -8.027,0 -14.765,3.6719 -14.687,12.5586 h 7.656 c 0.156,-4.7461 3.36,-7.2773 7.793,-7.2773 4.297,0 8.652,1.6914 8.652,6.6601 0,8.5743 -23.339,2.1407 -23.339,17.1407 0,8.0469 8.105,11.6409 15.078,11.6409" /><path
         id="path82"
         style="fill:#231f20;fill-opacity:1;fill-rule:nonzero;stroke:none"
         d="m 861.328,96.9531 c -0.39,4.8239 -2.676,8.1919 -7.89,8.1919 -6.954,0 -9.629,-6.0434 -9.629,-15.0786 0,-9.0312 2.675,-15.0781 9.629,-15.0781 4.824,0 7.812,3.1367 8.203,8.6523 h 7.265 c -0.625,-8.6523 -7.051,-13.9336 -15.547,-13.9336 -12.304,0 -17.207,8.7305 -17.207,20.0586 0,11.2504 5.664,20.6644 17.832,20.6644 8.106,0 14.239,-5.129 14.61,-13.4769 h -7.266" /><path
         id="path84"
         style="fill:#231f20;fill-opacity:1;fill-rule:nonzero;stroke:none"
         d="m 879.082,70.8594 v 55.2536 h 7.266 V 104.16 h 0.156 c 2.754,4.278 6.894,6.27 12.48,6.27 10.02,0 13.164,-6.66 13.164,-13.555 V 70.8594 h -7.265 v 22.7344 c 0,6.7382 -1.778,11.0942 -8.574,11.2502 -2.911,0.078 -7.344,-2.149 -8.731,-5.3635 -1.68,-3.9727 -1.23,-6.7344 -1.23,-8.875 V 70.8594 h -7.266" /><path
         id="path86"
         style="fill:#231f20;fill-opacity:1;fill-rule:nonzero;stroke:none"
         d="m 949.727,109.277 h 7.265 V 70.8594 h -7.109 v 5.664 h -0.156 c -2.911,-4.8242 -7.813,-6.8164 -13.164,-6.8164 -8.047,0 -12.637,6.125 -12.637,13.8555 v 25.7145 h 7.285 V 86.5508 c 0,-6.6602 1.523,-11.5625 8.496,-11.5625 2.969,0 7.031,1.5351 8.555,5.5195 1.386,3.5938 1.465,8.1055 1.465,9.0235 v 19.7457" /><path
         id="path88"
         style="fill:#231f20;fill-opacity:1;fill-rule:nonzero;stroke:none"
         d="m 968.945,70.8594 v 55.2536 h 7.266 V 70.8594 h -7.266" /><path
         id="path90"
         style="fill:#231f20;fill-opacity:1;fill-rule:nonzero;stroke:none"
         d="m 993.574,88.6914 c -0.527,-6.7383 2.227,-13.7031 9.646,-13.7031 5.67,0 8.5,2.2187 9.34,7.8125 h 7.65 c -1.15,-8.7305 -7.89,-13.0938 -17.07,-13.0938 -12.32,0 -17.222,8.7305 -17.222,20.0586 0,11.2504 5.684,20.6644 17.852,20.6644 11.46,-0.235 16.91,-7.5 16.91,-18.1448 v -3.5938 z m 19.456,5.0469 c 0.15,6.4377 -2.76,11.4067 -9.81,11.4067 -6.032,0 -9.646,-5.125 -9.646,-11.4067 h 19.456" /><path
         id="path92"
         style="fill:#231f20;fill-opacity:1;fill-rule:nonzero;stroke:none"
         d="m 1051.52,70.8594 v 33.3676 h -7.5 v 5.05 h 7.5 v 7.344 c 0.24,8.426 6.59,10.645 12.02,10.645 1.75,0 3.43,-0.461 5.19,-0.762 v -6.055 c -1.21,0.078 -2.44,0.235 -3.67,0.235 -4.12,0 -6.51,-1.075 -6.27,-5.286 v -6.121 h 8.89 v -5.05 h -8.89 V 70.8594 h -7.27" /><path
         id="path94"
         style="fill:#231f20;fill-opacity:1;fill-rule:nonzero;stroke:none"
         d="M 1101.72,109.277 H 1109 V 70.8594 h -7.12 v 5.664 h -0.16 c -2.91,-4.8242 -7.79,-6.8164 -13.17,-6.8164 -8.02,0 -12.61,6.125 -12.61,13.8555 v 25.7145 h 7.26 V 86.5508 c 0,-6.6602 1.55,-11.5625 8.5,-11.5625 2.99,0 7.05,1.5351 8.57,5.5195 1.37,3.5938 1.45,8.1055 1.45,9.0235 z m -20.04,9.032 v 7.804 h 6.95 v -7.804 z m 14.37,0 v 7.804 h 6.98 v -7.804 h -6.98" /><path
         id="path96"
         style="fill:#231f20;fill-opacity:1;fill-rule:nonzero;stroke:none"
         d="m 1130.96,70.8594 h -7.27 v 38.4176 h 7.27 v -7.422 h 0.15 c 1.08,5.282 5.98,7.958 11.25,7.958 0.92,0 1.68,-0.079 2.52,-0.079 v -6.882 c -0.97,0.378 -2.13,0.378 -3.12,0.378 -9.18,-0.3 -10.8,-5.2027 -10.8,-13.3081 V 70.8594" /><path
         id="path98"
         style="fill:#231f20;fill-opacity:1;fill-rule:nonzero;stroke:none"
         d="m 1164.1,70.8594 23.26,55.2536 h 8.21 l 22.34,-55.2536 h -8.34 l -5.98,14.3945 h -25.64 l -5.96,-14.3945 z m 16.47,20.9687 h 20.58 l -10.04,26.7069 z" /><path
         id="path100"
         style="fill:#231f20;fill-opacity:1;fill-rule:nonzero;stroke:none"
         d="m 1233.83,70.8594 h -7.27 v 38.4176 h 7.27 v -7.422 h 0.15 c 1.08,5.282 5.96,7.958 11.25,7.958 0.92,0 1.68,-0.079 2.52,-0.079 v -6.882 c -0.99,0.378 -2.14,0.378 -3.14,0.378 -9.18,-0.3 -10.78,-5.2027 -10.78,-13.3081 V 70.8594" /><path
         id="path102"
         style="fill:#231f20;fill-opacity:1;fill-rule:nonzero;stroke:none"
         d="m 1276.6,96.9531 c -0.37,4.8239 -2.67,8.1919 -7.87,8.1919 -6.97,0 -9.65,-6.0434 -9.65,-15.0786 0,-9.0312 2.68,-15.0781 9.65,-15.0781 4.82,0 7.79,3.1367 8.18,8.6523 h 7.27 c -0.61,-8.6523 -7.03,-13.9336 -15.53,-13.9336 -12.32,0 -17.22,8.7305 -17.22,20.0586 0,11.2504 5.66,20.6644 17.83,20.6644 8.1,0 14.24,-5.129 14.63,-13.4769 h -7.29" /><path
         id="path104"
         style="fill:#231f20;fill-opacity:1;fill-rule:nonzero;stroke:none"
         d="m 1294.38,70.8594 v 55.2536 h 7.26 V 104.16 h 0.16 c 2.75,4.278 6.87,6.27 12.46,6.27 10.04,0 13.16,-6.66 13.16,-13.555 V 70.8594 h -7.26 v 22.7344 c 0,6.7382 -1.76,11.0942 -8.58,11.2502 -2.91,0.078 -7.34,-2.149 -8.73,-5.3635 -1.68,-3.9727 -1.21,-6.7344 -1.21,-8.875 V 70.8594 h -7.26" /><path
         id="path106"
         style="fill:#231f20;fill-opacity:1;fill-rule:nonzero;stroke:none"
         d="m 1341.35,126.113 h 8.65 v -7.883 h -8.65 z m 0.7,-55.2536 v 38.4176 h 7.27 V 70.8594 h -7.27" /><path
         id="path108"
         style="fill:#231f20;fill-opacity:1;fill-rule:nonzero;stroke:none"
         d="m 1364.32,109.277 v 8.192 l 7.26,2.297 v -10.489 l 8.89,0.235 v -5.43 l -8.89,0.078 V 79.3555 c 0,-2.7539 2.15,-4.0625 4.75,-4.0625 1.15,0 2.67,0.1562 3.83,0.4687 v -5.5859 c -1.68,-0.0781 -3.28,-0.4688 -4.98,-0.4688 -1.76,0 -3.13,0.0782 -4.89,0.3907 -1.15,0.2226 -3.06,0.8398 -4.29,2.5195 -1.31,1.8359 -1.68,1.9922 -1.68,7.1172 V 104.16 l -6.59,-0.078 v 5.43 l 6.59,-0.235" /><path
         id="path110"
         style="fill:#231f20;fill-opacity:1;fill-rule:nonzero;stroke:none"
         d="m 1394.84,88.6914 c -0.52,-6.7383 2.23,-13.7031 9.65,-13.7031 5.67,0 8.5,2.2187 9.34,7.8125 h 7.65 c -1.15,-8.7305 -7.89,-13.0938 -17.07,-13.0938 -12.32,0 -17.22,8.7305 -17.22,20.0586 0,11.2504 5.66,20.6644 17.85,20.6644 11.46,-0.235 16.91,-7.5 16.91,-18.1448 v -3.5938 z m 19.46,5.0469 c 0.13,6.4377 -2.76,11.4067 -9.81,11.4067 -6.03,0 -9.65,-5.125 -9.65,-11.4067 h 19.46" /><path
         id="path112"
         style="fill:#231f20;fill-opacity:1;fill-rule:nonzero;stroke:none"
         d="m 1432.66,70.8594 v 55.2536 h 7.26 V 93.5938 l 14.4,15.6832 h 9.41 l -16.23,-16.3004 17.23,-22.1172 h -9.42 l -15.23,20.7422 h -0.16 V 70.8594 h -7.26" /><path
         id="path114"
         style="fill:#231f20;fill-opacity:1;fill-rule:nonzero;stroke:none"
         d="m 1472.91,109.277 v 8.192 l 7.29,2.297 v -10.489 l 8.86,0.235 v -5.43 l -8.86,0.078 V 79.3555 c 0,-2.7539 2.12,-4.0625 4.74,-4.0625 1.13,0 2.68,0.1562 3.83,0.4687 v -5.5859 c -1.7,-0.0781 -3.3,-0.4688 -4.98,-0.4688 -1.76,0 -3.15,0.0782 -4.9,0.3907 -1.16,0.2226 -3.07,0.8398 -4.28,2.5195 -1.31,1.8359 -1.7,1.9922 -1.7,7.1172 V 104.16 l -6.58,-0.078 v 5.43 l 6.58,-0.235" /><path
         id="path116"
         style="fill:#231f20;fill-opacity:1;fill-rule:nonzero;stroke:none"
         d="m 1524.57,109.277 h 7.29 V 70.8594 h -7.13 v 5.664 h -0.16 c -2.91,-4.8242 -7.79,-6.8164 -13.16,-6.8164 -8.03,0 -12.62,6.125 -12.62,13.8555 v 25.7145 h 7.26 V 86.5508 c 0,-6.6602 1.53,-11.5625 8.5,-11.5625 2.99,0 7.05,1.5351 8.58,5.5195 1.36,3.5938 1.44,8.1055 1.44,9.0235 v 19.7457" /><path
         id="path118"
         style="fill:#231f20;fill-opacity:1;fill-rule:nonzero;stroke:none"
         d="m 1553.81,70.8594 h -7.27 v 38.4176 h 7.27 v -7.422 h 0.15 c 1.08,5.282 5.98,7.958 11.25,7.958 0.92,0 1.68,-0.079 2.52,-0.079 v -6.882 c -0.97,0.378 -2.12,0.378 -3.12,0.378 -9.18,-0.3 -10.8,-5.2027 -10.8,-13.3081 V 70.8594" /><path
         id="path120"
         style="fill:#231f20;fill-opacity:1;fill-rule:nonzero;stroke:none"
         d="m 1570.59,80.0391 h 8.86 l -8.57,-18.75 h -5.2 l 4.91,18.75" /><path
         id="path122"
         style="fill:#231f20;fill-opacity:1;fill-rule:nonzero;stroke:none"
         d="M 1605.25,70.8594 V 126.113 H 1625 c 9.49,0 17.83,-3.672 17.83,-14.386 0,-5.731 -3.9,-10.411 -9.33,-11.9418 v -0.1485 c 7.11,-1.0742 11.01,-7.4297 11.01,-14.3047 0,-6.4375 -4.22,-11.2617 -10.02,-13.3984 -2.83,-1.0742 -6.21,-1.1523 -9.49,-1.0742 z m 7.64,31.9926 h 9.49 c 7.29,-0.235 12.41,1.074 12.41,8.339 0,7.274 -5.12,8.575 -12.41,8.34 h -9.49 z m 0,-25.4106 h 12.79 c 5.9,0 10.78,2.5977 10.78,9.4141 0,6.8086 -4.88,9.414 -10.78,9.414 h -12.79 V 77.4414" /><path
         id="path124"
         style="fill:#231f20;fill-opacity:1;fill-rule:nonzero;stroke:none"
         d="m 1679.1,94.5898 c 0,6.6602 -0.39,10.5552 -8.1,10.5552 -3.68,0 -7.13,-2.137 -7.21,-6.1216 h -7.66 c 0.39,8.4176 6.98,11.4066 14.55,11.4066 7.89,0 15.69,-2.375 15.69,-13.0862 V 78.9727 c 0,-1.6875 0.08,-4.9024 0.31,-8.1133 h -4.9 c -0.69,0 -1.99,-0.3828 -2.07,0.5351 -0.14,1.7578 -0.3,3.4493 -0.37,5.2071 h -0.16 c -2.38,-4.8243 -6.66,-6.8946 -11.93,-6.8946 -6.66,0 -13.4,3.4453 -13.4,10.9453 0,10.793 9.57,13.9375 18.67,13.9375 z m -7.26,-5.0585 c -4.46,-0.2266 -10.34,-1.836 -10.34,-7.4219 0,-4.7461 3.29,-7.1211 7.58,-7.1211 8.58,0 10.18,7.4336 10.02,14.543 h -7.26" /><path
         id="path126"
         style="fill:#231f20;fill-opacity:1;fill-rule:nonzero;stroke:none"
         d="m 1724.26,109.277 h 7.26 V 70.8594 h -7.11 v 5.664 h -0.15 c -2.91,-4.8242 -7.81,-6.8164 -13.17,-6.8164 -8.02,0 -12.61,6.125 -12.61,13.8555 v 25.7145 h 7.26 V 86.5508 c 0,-6.6602 1.53,-11.5625 8.5,-11.5625 2.99,0 7.03,1.5351 8.57,5.5195 1.37,3.5938 1.45,8.1055 1.45,9.0235 v 19.7457" /><path
         id="path128"
         style="fill:#231f20;fill-opacity:1;fill-rule:nonzero;stroke:none"
         d="m 1785.41,109.277 h 7.27 V 70.8594 h -7.11 v 5.664 h -0.16 c -2.91,-4.8242 -7.81,-6.8164 -13.16,-6.8164 -8.05,0 -12.64,6.125 -12.64,13.8555 v 25.7145 h 7.28 V 86.5508 c 0,-6.6602 1.53,-11.5625 8.5,-11.5625 2.97,0 7.03,1.5351 8.56,5.5195 1.38,3.5938 1.46,8.1055 1.46,9.0235 v 19.7457" /><path
         id="path130"
         style="fill:#231f20;fill-opacity:1;fill-rule:nonzero;stroke:none"
         d="m 1814.26,103.613 h 0.15 c 2.47,4.825 7.82,6.817 11.64,6.817 2.68,0 14.54,-0.696 14.54,-13.0081 V 70.8594 h -7.27 v 24.1797 c 0,6.3559 -2.68,9.8049 -8.81,9.8049 0,0 -3.96,0.234 -7.03,-2.832 -1.07,-1.074 -3.07,-2.7542 -3.07,-10.2542 V 70.8594 h -7.26 v 38.4176 h 7.11 v -5.664" /><path
         id="path132"
         style="fill:#231f20;fill-opacity:1;fill-rule:nonzero;stroke:none"
         d="m 1879.71,126.113 h 7.26 V 77.6758 c 0,-2.3047 0.24,-4.5977 0.39,-6.8164 h -7.44 l -0.21,5.7422 v 0.3789 h -0.16 c -2.6,-5.3594 -7.66,-7.2735 -13.24,-7.2735 -11.41,0 -15.92,10.4883 -15.92,20.3594 0,10.4106 5.27,20.3636 17.23,20.3636 4.88,0 9.7,-1.758 11.93,-6.348 h 0.16 z m -10.8,-51.3474 c 8.8,0 10.88,8.1836 10.88,15.3789 0,6.9649 -2.62,15.2385 -10.88,15.2385 -8.73,0 -10.86,-8.0392 -10.86,-15.2385 0,-7.1953 2.67,-15.3789 10.86,-15.3789" /><path
         id="path134"
         style="fill:#231f20;fill-opacity:1;fill-rule:nonzero;stroke:none"
         d="m 1953.71,112.344 c -1.39,6.582 -7.11,8.34 -13.01,8.34 -13.55,0 -18.45,-11.868 -18.14,-22.1996 0.6,-14.1485 4.9,-21.8828 20.74,-22.1953 3.75,0 7.5,0.6132 11.02,1.7578 v 15.6172 h -12.54 v 6.5899 h 20.19 V 72.9297 c -6.34,-1.9141 -12.69,-3.2227 -18.98,-3.2227 -7.79,0 -14.16,0.9961 -20.2,6.3555 -6.13,5.3633 -8.26,14.6211 -8.26,22.4219 0,5.7426 1.92,12.0236 4.75,16.9926 4.8,8.429 12.93,11.789 22.34,11.789 9.34,0 19.67,-4.289 20.12,-14.922 h -8.03" /><path
         id="path136"
         style="fill:#231f20;fill-opacity:1;fill-rule:nonzero;stroke:none"
         d="m 1980.04,88.6914 c -0.53,-6.7383 2.23,-13.7031 9.65,-13.7031 5.66,0 8.49,2.2187 9.33,7.8125 h 7.66 c -1.15,-8.7305 -7.89,-13.0938 -17.07,-13.0938 -12.32,0 -17.23,8.7305 -17.23,20.0586 0,11.2504 5.67,20.6644 17.83,20.6644 11.49,-0.235 16.92,-7.5 16.92,-18.1448 v -3.5938 z m 19.43,5.0469 c 0.16,6.4377 -2.75,11.4067 -9.78,11.4067 -6.06,0 -9.65,-5.125 -9.65,-11.4067 h 19.43" /><path
         id="path138"
         style="fill:#231f20;fill-opacity:1;fill-rule:nonzero;stroke:none"
         d="m 2053.2,90.0664 c 0,-11.9414 -6.5,-20.3594 -19.14,-20.3594 -12.61,0 -19.12,8.418 -19.12,20.3594 0,11.9456 6.51,20.3636 19.12,20.3636 12.64,0 19.14,-8.418 19.14,-20.3636 z m -19.14,-15.0781 c 8.65,0 11.49,6.8867 11.49,15.0781 0,8.1953 -2.84,15.0786 -11.49,15.0786 -8.63,0 -11.46,-6.8833 -11.46,-15.0786 0,-8.1914 2.83,-15.0781 11.46,-15.0781" /><path
         id="path140"
         style="fill:#231f20;fill-opacity:1;fill-rule:nonzero;stroke:none"
         d="m 2070.12,103.77 h 0.15 c 2.31,4.824 7.05,6.66 10.94,6.66 7.29,0 11.56,-2.453 13.56,-7.2 2.75,4.747 7.11,7.2 12.77,7.2 8.89,0 14.32,-5.586 14.32,-12.4808 V 70.8594 h -7.27 v 22.7344 c 0,5.2734 -0.76,11.2502 -9.26,11.2502 -2.22,0 -7.13,-1.231 -8.49,-5.9768 -1,-3.5156 -0.77,-7.3438 -0.77,-8.2617 V 70.8594 h -7.28 v 22.7344 c 0,6.6602 -1.52,11.2502 -8.5,11.2502 -2.97,0 -7.26,-1.153 -9.49,-6.2815 -0.84,-1.9922 -0.53,-7.0391 -0.53,-7.957 V 70.8594 h -7.26 v 38.4176 h 7.11 v -5.507" /><path
         id="path142"
         style="fill:#231f20;fill-opacity:1;fill-rule:nonzero;stroke:none"
         d="m 2157.05,94.5898 c 0,6.6602 -0.37,10.5552 -8.1,10.5552 -3.68,0 -7.11,-2.137 -7.19,-6.1216 h -7.66 c 0.39,8.4176 6.97,11.4066 14.55,11.4066 7.87,0 15.69,-2.375 15.69,-13.0862 V 78.9727 c 0,-1.6875 0.07,-4.9024 0.29,-8.1133 h -4.88 c -0.71,0 -2,-0.3828 -2.07,0.5351 -0.16,1.7578 -0.32,3.4493 -0.39,5.2071 h -0.16 c -2.36,-4.8243 -6.64,-6.8946 -11.93,-6.8946 -6.66,0 -13.38,3.4453 -13.38,10.9453 0,10.793 9.55,13.9375 18.67,13.9375 z m -7.26,-5.0585 c -4.44,-0.2266 -10.34,-1.836 -10.34,-7.4219 0,-4.7461 3.3,-7.1211 7.58,-7.1211 8.58,0 10.18,7.4336 10.02,14.543 h -7.26" /><path
         id="path144"
         style="fill:#231f20;fill-opacity:1;fill-rule:nonzero;stroke:none"
         d="m 2179.49,109.277 v 8.192 l 7.27,2.297 v -10.489 l 8.87,0.235 v -5.43 l -8.87,0.078 V 79.3555 c 0,-2.7539 2.15,-4.0625 4.74,-4.0625 1.16,0 2.68,0.1562 3.83,0.4687 v -5.5859 c -1.68,-0.0781 -3.3,-0.4688 -4.98,-0.4688 -1.76,0 -3.14,0.0782 -4.9,0.3907 -1.15,0.2226 -3.05,0.8398 -4.28,2.5195 -1.31,1.8359 -1.68,1.9922 -1.68,7.1172 V 104.16 l -6.58,-0.078 v 5.43 l 6.58,-0.235" /><path
         id="path146"
         style="fill:#231f20;fill-opacity:1;fill-rule:nonzero;stroke:none"
         d="m 2204.82,126.113 h 8.64 v -7.883 h -8.64 z m 0.69,-55.2536 v 38.4176 h 7.26 V 70.8594 h -7.26" /><path
         id="path148"
         style="fill:#231f20;fill-opacity:1;fill-rule:nonzero;stroke:none"
         d="m 2226.56,70.8594 v 55.2536 h 7.27 V 93.5938 l 14.39,15.6832 h 9.42 l -16.23,-16.3004 17.2,-22.1172 h -9.41 l -15.22,20.7422 h -0.15 V 70.8594 h -7.27" /><path
         id="path150"
         style="fill:#231f20;fill-opacity:1;fill-rule:nonzero;stroke:none"
         d="m 208.191,0 v 283.465 h -9.695 V 0 h 9.695" /><path
         id="path152"
         style="fill:#231f20;fill-opacity:1;fill-rule:nonzero;stroke:none"
         d="M 52.7266,189.227 C 57.3242,195.719 67.8711,216 98.6914,216 c 21.7186,0 33.2616,-8.652 37.8516,-12.977 13.254,-12.984 14.062,-31.64 14.062,-42.179 V 70.8984 H 94.9023 v 79.0586 c 0,1.594 -0.2539,20.078 -18.9257,20.078 -19.7461,0 -20.2735,-18.14 -20.2735,-22.988 V 70.8984 H 0 V 212.488 h 52.7266 v -23.261" /><path
         id="path154"
         style="fill:#231f20;fill-opacity:1;fill-rule:nonzero;stroke:none"
         d="m 455.391,215.742 c -10.442,0 -18.907,-8.469 -18.907,-18.902 0,-10.438 8.465,-18.895 18.907,-18.895 9.57,0 13.808,6.899 13.925,6.547 5.411,-16.508 -23.293,-102.1482 -62.519,-102.1482 -12.695,0 -16.629,10.2734 -16.629,23.5742 0,15.742 4.539,31.762 10.293,53.535 6.043,21.465 11.48,42.031 14.519,53.035 H 377.188 C 372.031,193.922 335.051,85.0586 303.691,85.0586 c -3.925,0 -8.164,4.2383 -8.164,11.7969 0,4.2385 3.621,19.0625 5.45,24.4925 l 12.382,42.34 c 2.715,8.773 6.653,20.246 6.653,28.718 0,14.817 -10.278,23.285 -22.364,23.285 -34.171,0 -48.378,-30.535 -55.351,-42.933 l 5.762,-3.633 c 3.32,5.441 18.433,31.137 28.718,31.137 1.516,0 2.727,-1.805 2.727,-7.25 0,-3.629 -2.109,-11.785 -4.238,-19.344 l -13,-42.941 C 260.148,122.852 255,107.734 255,96.8555 c 0,-19.961 15.129,-29.9414 28.43,-29.9414 48.484,0 69.55,58.6719 76.504,75.6019 l 0.601,-0.606 c -0.906,-3.332 -5.144,-21.168 -5.144,-30.25 0,-25.9959 11.613,-44.7459 37.011,-44.7459 73.621,0 113.797,148.8279 62.989,148.8279" /></g></g></svg>